<mxfile host="app.diagrams.net" modified="2023-06-12T13:15:49.562Z" agent="Mozilla/5.0 (Macintosh; Intel Mac OS X 10_15_7) AppleWebKit/537.36 (KHTML, like Gecko) Chrome/114.0.0.0 Safari/537.36" etag="A8MkWT5z7nDHLe3D0AeY" version="21.3.8" type="github">
  <diagram name="페이지-1" id="7is0xHNykzXJWVUT5CMO">
    <mxGraphModel dx="1558" dy="1586" grid="0" gridSize="10" guides="1" tooltips="1" connect="1" arrows="0" fold="1" page="0" pageScale="1" pageWidth="827" pageHeight="1169" math="0" shadow="0">
      <root>
        <mxCell id="0" />
        <mxCell id="1" parent="0" />
        <mxCell id="BoB36HrlG8xSG7VNo-xf-35" style="rounded=0;orthogonalLoop=1;jettySize=auto;html=1;entryX=0;entryY=1;entryDx=0;entryDy=0;exitX=1;exitY=0.3333333333333333;exitDx=0;exitDy=0;exitPerimeter=0;endArrow=none;endFill=0;" edge="1" parent="1" source="BoB36HrlG8xSG7VNo-xf-6" target="BoB36HrlG8xSG7VNo-xf-20">
          <mxGeometry relative="1" as="geometry" />
        </mxCell>
        <mxCell id="BoB36HrlG8xSG7VNo-xf-36" style="rounded=0;orthogonalLoop=1;jettySize=auto;html=1;exitX=1;exitY=0.3333333333333333;exitDx=0;exitDy=0;exitPerimeter=0;strokeColor=default;endArrow=none;endFill=0;" edge="1" parent="1" source="BoB36HrlG8xSG7VNo-xf-6" target="BoB36HrlG8xSG7VNo-xf-12">
          <mxGeometry relative="1" as="geometry" />
        </mxCell>
        <mxCell id="BoB36HrlG8xSG7VNo-xf-37" style="rounded=0;orthogonalLoop=1;jettySize=auto;html=1;exitX=1;exitY=0.3333333333333333;exitDx=0;exitDy=0;exitPerimeter=0;endArrow=none;endFill=0;" edge="1" parent="1" source="BoB36HrlG8xSG7VNo-xf-6" target="BoB36HrlG8xSG7VNo-xf-16">
          <mxGeometry relative="1" as="geometry" />
        </mxCell>
        <mxCell id="BoB36HrlG8xSG7VNo-xf-38" style="rounded=0;orthogonalLoop=1;jettySize=auto;html=1;exitX=1;exitY=0.3333333333333333;exitDx=0;exitDy=0;exitPerimeter=0;entryX=0;entryY=0.5;entryDx=0;entryDy=0;endArrow=none;endFill=0;" edge="1" parent="1" source="BoB36HrlG8xSG7VNo-xf-6" target="BoB36HrlG8xSG7VNo-xf-17">
          <mxGeometry relative="1" as="geometry" />
        </mxCell>
        <mxCell id="BoB36HrlG8xSG7VNo-xf-6" value="User&lt;br&gt;" style="shape=umlActor;verticalLabelPosition=bottom;verticalAlign=top;html=1;outlineConnect=0;fontSize=16;" vertex="1" parent="1">
          <mxGeometry x="-227" y="-443" width="87" height="153" as="geometry" />
        </mxCell>
        <mxCell id="BoB36HrlG8xSG7VNo-xf-11" value="Board&amp;nbsp;" style="shape=umlFrame;whiteSpace=wrap;html=1;pointerEvents=0;" vertex="1" parent="1">
          <mxGeometry x="-48" y="-492" width="577" height="614" as="geometry" />
        </mxCell>
        <mxCell id="BoB36HrlG8xSG7VNo-xf-12" value="Sign up" style="rounded=1;whiteSpace=wrap;html=1;arcSize=40;fontColor=#000000;fillColor=#ffffc0;strokeColor=#ff0000;" vertex="1" parent="1">
          <mxGeometry x="34" y="-474" width="120" height="40" as="geometry" />
        </mxCell>
        <mxCell id="BoB36HrlG8xSG7VNo-xf-45" style="rounded=0;orthogonalLoop=1;jettySize=auto;html=1;exitX=1;exitY=0.5;exitDx=0;exitDy=0;dashed=1;" edge="1" parent="1" source="BoB36HrlG8xSG7VNo-xf-16" target="BoB36HrlG8xSG7VNo-xf-20">
          <mxGeometry relative="1" as="geometry" />
        </mxCell>
        <mxCell id="BoB36HrlG8xSG7VNo-xf-16" value="Entering the board" style="rounded=1;whiteSpace=wrap;html=1;arcSize=40;fontColor=#000000;fillColor=#ffffc0;strokeColor=#ff0000;" vertex="1" parent="1">
          <mxGeometry x="-27" y="-317" width="120" height="40" as="geometry" />
        </mxCell>
        <mxCell id="BoB36HrlG8xSG7VNo-xf-46" style="rounded=0;orthogonalLoop=1;jettySize=auto;html=1;exitX=1;exitY=0.5;exitDx=0;exitDy=0;entryX=0.5;entryY=1;entryDx=0;entryDy=0;dashed=1;" edge="1" parent="1" source="BoB36HrlG8xSG7VNo-xf-17" target="BoB36HrlG8xSG7VNo-xf-20">
          <mxGeometry relative="1" as="geometry" />
        </mxCell>
        <mxCell id="BoB36HrlG8xSG7VNo-xf-17" value="Reading a post&amp;nbsp;" style="rounded=1;whiteSpace=wrap;html=1;arcSize=40;fontColor=#000000;fillColor=#ffffc0;strokeColor=#ff0000;" vertex="1" parent="1">
          <mxGeometry x="-22" y="-142" width="120" height="40" as="geometry" />
        </mxCell>
        <mxCell id="BoB36HrlG8xSG7VNo-xf-48" style="rounded=0;orthogonalLoop=1;jettySize=auto;html=1;exitX=1;exitY=0.5;exitDx=0;exitDy=0;endArrow=none;endFill=0;" edge="1" parent="1" source="BoB36HrlG8xSG7VNo-xf-19" target="BoB36HrlG8xSG7VNo-xf-47">
          <mxGeometry relative="1" as="geometry" />
        </mxCell>
        <mxCell id="BoB36HrlG8xSG7VNo-xf-19" value="Authentication" style="rounded=1;whiteSpace=wrap;html=1;arcSize=40;fontColor=#000000;fillColor=#ffffc0;strokeColor=#ff0000;" vertex="1" parent="1">
          <mxGeometry x="372" y="-450" width="120" height="40" as="geometry" />
        </mxCell>
        <mxCell id="BoB36HrlG8xSG7VNo-xf-32" value="&amp;lt;&amp;lt;include&amp;gt;&amp;gt;" style="rounded=0;orthogonalLoop=1;jettySize=auto;html=1;dashed=1;" edge="1" parent="1" source="BoB36HrlG8xSG7VNo-xf-20" target="BoB36HrlG8xSG7VNo-xf-19">
          <mxGeometry relative="1" as="geometry" />
        </mxCell>
        <mxCell id="BoB36HrlG8xSG7VNo-xf-33" style="rounded=0;orthogonalLoop=1;jettySize=auto;html=1;" edge="1" parent="1">
          <mxGeometry relative="1" as="geometry">
            <mxPoint x="276" y="-421" as="sourcePoint" />
            <mxPoint x="373" y="-386" as="targetPoint" />
          </mxGeometry>
        </mxCell>
        <mxCell id="BoB36HrlG8xSG7VNo-xf-20" value="Log in" style="rounded=1;whiteSpace=wrap;html=1;arcSize=40;fontColor=#000000;fillColor=#ffffc0;strokeColor=#ff0000;" vertex="1" parent="1">
          <mxGeometry x="200.25" y="-443" width="80.5" height="30" as="geometry" />
        </mxCell>
        <mxCell id="BoB36HrlG8xSG7VNo-xf-21" value="Log in failed&amp;nbsp;" style="rounded=1;whiteSpace=wrap;html=1;arcSize=40;fontColor=#000000;fillColor=#ffffc0;strokeColor=none;" vertex="1" parent="1">
          <mxGeometry x="372" y="-398" width="120" height="40" as="geometry" />
        </mxCell>
        <mxCell id="BoB36HrlG8xSG7VNo-xf-41" style="rounded=0;orthogonalLoop=1;jettySize=auto;html=1;exitX=0;exitY=0.5;exitDx=0;exitDy=0;dashed=1;" edge="1" parent="1" source="BoB36HrlG8xSG7VNo-xf-22" target="BoB36HrlG8xSG7VNo-xf-16">
          <mxGeometry relative="1" as="geometry" />
        </mxCell>
        <mxCell id="BoB36HrlG8xSG7VNo-xf-22" value="Sorting posts&amp;nbsp;" style="rounded=1;whiteSpace=wrap;html=1;arcSize=40;fontColor=#000000;fillColor=#ffffc0;strokeColor=#ff0000;" vertex="1" parent="1">
          <mxGeometry x="236" y="-330" width="120" height="40" as="geometry" />
        </mxCell>
        <mxCell id="BoB36HrlG8xSG7VNo-xf-42" style="rounded=0;orthogonalLoop=1;jettySize=auto;html=1;exitX=0;exitY=0.5;exitDx=0;exitDy=0;entryX=1;entryY=0.5;entryDx=0;entryDy=0;dashed=1;" edge="1" parent="1" source="BoB36HrlG8xSG7VNo-xf-23" target="BoB36HrlG8xSG7VNo-xf-16">
          <mxGeometry relative="1" as="geometry" />
        </mxCell>
        <mxCell id="BoB36HrlG8xSG7VNo-xf-23" value="Searching a post" style="rounded=1;whiteSpace=wrap;html=1;arcSize=40;fontColor=#000000;fillColor=#ffffc0;strokeColor=#ff0000;" vertex="1" parent="1">
          <mxGeometry x="236" y="-264" width="120" height="40" as="geometry" />
        </mxCell>
        <mxCell id="BoB36HrlG8xSG7VNo-xf-43" style="rounded=0;orthogonalLoop=1;jettySize=auto;html=1;exitX=0;exitY=0.5;exitDx=0;exitDy=0;dashed=1;" edge="1" parent="1" source="BoB36HrlG8xSG7VNo-xf-24" target="BoB36HrlG8xSG7VNo-xf-17">
          <mxGeometry relative="1" as="geometry" />
        </mxCell>
        <mxCell id="BoB36HrlG8xSG7VNo-xf-51" style="rounded=0;orthogonalLoop=1;jettySize=auto;html=1;exitX=1;exitY=0.25;exitDx=0;exitDy=0;entryX=0;entryY=0.75;entryDx=0;entryDy=0;endArrow=none;endFill=0;" edge="1" parent="1" source="BoB36HrlG8xSG7VNo-xf-24" target="BoB36HrlG8xSG7VNo-xf-47">
          <mxGeometry relative="1" as="geometry" />
        </mxCell>
        <mxCell id="BoB36HrlG8xSG7VNo-xf-24" value="Write, delete, edit a post" style="rounded=1;whiteSpace=wrap;html=1;arcSize=40;fontColor=#000000;fillColor=#ffffc0;strokeColor=#ff0000;" vertex="1" parent="1">
          <mxGeometry x="236" y="-150" width="120" height="40" as="geometry" />
        </mxCell>
        <mxCell id="BoB36HrlG8xSG7VNo-xf-44" style="rounded=0;orthogonalLoop=1;jettySize=auto;html=1;exitX=0;exitY=0.5;exitDx=0;exitDy=0;entryX=1;entryY=0.75;entryDx=0;entryDy=0;dashed=1;" edge="1" parent="1" source="BoB36HrlG8xSG7VNo-xf-25" target="BoB36HrlG8xSG7VNo-xf-17">
          <mxGeometry relative="1" as="geometry" />
        </mxCell>
        <mxCell id="BoB36HrlG8xSG7VNo-xf-52" style="rounded=0;orthogonalLoop=1;jettySize=auto;html=1;exitX=1;exitY=0.5;exitDx=0;exitDy=0;endArrow=none;endFill=0;" edge="1" parent="1" source="BoB36HrlG8xSG7VNo-xf-25">
          <mxGeometry relative="1" as="geometry">
            <mxPoint x="634.9411764705883" y="-325.41176470588243" as="targetPoint" />
          </mxGeometry>
        </mxCell>
        <mxCell id="BoB36HrlG8xSG7VNo-xf-25" value="Write, delete, edit a comment" style="rounded=1;whiteSpace=wrap;html=1;arcSize=40;fontColor=#000000;fillColor=#ffffc0;strokeColor=#ff0000;" vertex="1" parent="1">
          <mxGeometry x="236" y="-71" width="120" height="40" as="geometry" />
        </mxCell>
        <mxCell id="BoB36HrlG8xSG7VNo-xf-49" style="rounded=0;orthogonalLoop=1;jettySize=auto;html=1;exitX=0;exitY=0.25;exitDx=0;exitDy=0;endArrow=none;endFill=0;" edge="1" parent="1" source="BoB36HrlG8xSG7VNo-xf-47" target="BoB36HrlG8xSG7VNo-xf-17">
          <mxGeometry relative="1" as="geometry" />
        </mxCell>
        <mxCell id="BoB36HrlG8xSG7VNo-xf-50" style="rounded=0;orthogonalLoop=1;jettySize=auto;html=1;exitX=0;exitY=0.25;exitDx=0;exitDy=0;endArrow=none;endFill=0;" edge="1" parent="1" source="BoB36HrlG8xSG7VNo-xf-47" target="BoB36HrlG8xSG7VNo-xf-16">
          <mxGeometry relative="1" as="geometry" />
        </mxCell>
        <mxCell id="BoB36HrlG8xSG7VNo-xf-47" value="DB" style="html=1;whiteSpace=wrap;" vertex="1" parent="1">
          <mxGeometry x="639" y="-363" width="110" height="50" as="geometry" />
        </mxCell>
      </root>
    </mxGraphModel>
  </diagram>
</mxfile>
